<?xml version="1.0" encoding="UTF-8"?>
<svg version="1.1" xmlns="http://www.w3.org/2000/svg" width="1024" height="1024">
<path d="M0 0 C1.010625 0.763125 2.02125 1.52625 3.0625 2.3125 C9.21835233 7.94445 14.75288898 14.79837697 19 22 C19 22.66 19 23.32 19 24 C19.56203125 23.96519531 20.1240625 23.93039062 20.703125 23.89453125 C40.39743493 23.26020532 60.16876391 28.81875745 78.625 35.1875 C79.35420654 35.43733643 80.08341309 35.68717285 80.8347168 35.94458008 C85.87645919 37.75291838 85.87645919 37.75291838 87 40 C88.28970703 40.42732422 88.28970703 40.42732422 89.60546875 40.86328125 C93.54561698 42.18270948 96.78349668 44.02858032 100.3125 46.1875 C100.97475586 46.5896875 101.63701172 46.991875 102.31933594 47.40625 C107.51079169 50.60489755 112.30748818 54.10479992 117 58 C117.98613281 58.77988281 118.97226562 59.55976563 119.98828125 60.36328125 C125.90343228 65.07586028 125.90343228 65.07586028 128 67 C128 67.66 128 68.32 128 69 C128.66 69 129.32 69 130 69 C135.43359389 74.74408497 140.09065279 81.34942328 144.8125 87.6875 C145.26810303 88.29215088 145.72370605 88.89680176 146.19311523 89.51977539 C148.48825074 92.64205526 150.44979375 95.74502644 152.1550293 99.22973633 C152.50389694 99.93906815 152.85276459 100.64839996 153.21220398 101.37922668 C153.47217667 101.91408188 153.73214935 102.44893707 154 103 C153.44386017 103.04122986 152.88772034 103.08245972 152.31472778 103.12493896 C76.82991282 106.38039424 76.82991282 106.38039424 12 141 C1.12824202 153.69291541 -3.28196259 167.31380952 -2 184 C-0.17063661 198.08609807 5.8409523 210.13161475 12.5625 222.4375 C18.63038159 233.61806282 22.3863169 245.32978918 25.75 257.5625 C26.04825684 258.62186768 26.04825684 258.62186768 26.35253906 259.70263672 C29.74934669 272.68683193 30.41119847 286.08102928 30.375 299.4375 C30.37478851 300.16856964 30.37457703 300.89963928 30.37435913 301.65286255 C30.33510697 315.37865433 28.95282768 328.57258212 26 342 C25.81276367 342.85577637 25.62552734 343.71155273 25.43261719 344.59326172 C21.33951358 362.66583405 14.75602518 379.69793258 6 396 C5.65743164 396.65033203 5.31486328 397.30066406 4.96191406 397.97070312 C-11.41818261 428.9600752 -35.4131546 456.24658166 -62.6875 478.08984375 C-64.57944763 479.65261806 -66.27427209 481.26423879 -68 483 C-69.36312565 483.92010981 -70.72924624 484.83606492 -72.109375 485.73046875 C-74.37614163 487.25257444 -76.55598608 488.87467987 -78.75 490.5 C-130.2116382 527.95186607 -193.35930082 555.21782485 -257.90234375 555.01953125 C-258.7795105 555.01812134 -259.65667725 555.01671143 -260.5604248 555.01525879 C-262.70695279 555.0116045 -264.8534773 555.00600072 -267 555 C-266.99962028 554.44615802 -266.99924056 553.89231604 -266.99884933 553.32169098 C-266.97647067 520.49563539 -266.95931314 487.66958172 -266.94893467 454.84352022 C-266.94768397 450.90194641 -266.94638964 446.96037262 -266.94506836 443.01879883 C-266.94467489 441.84175556 -266.94467489 441.84175556 -266.94427348 440.64093364 C-266.93992232 427.93570245 -266.93203781 415.23047578 -266.9228472 402.52524727 C-266.91349528 389.48826069 -266.90794112 376.45127647 -266.90591151 363.41428667 C-266.90453948 355.36995698 -266.9002062 347.32564008 -266.89208353 339.28131432 C-266.88617213 333.11265158 -266.88554495 326.94399859 -266.88689232 320.7753334 C-266.88661693 318.24494536 -266.88462412 315.71455684 -266.88079453 313.18417168 C-266.8758249 309.7315228 -266.87701386 306.27892881 -266.87974548 302.82627869 C-266.87683264 301.82334917 -266.8739198 300.82041966 -266.87091869 299.78709835 C-266.87949554 295.78062926 -266.93570639 291.9093575 -267.57001591 287.94835758 C-268 285 -268 285 -267 283 C-266.90939559 281.66395476 -266.87952644 280.32348544 -266.88256836 278.984375 C-266.88299889 277.74288696 -266.88299889 277.74288696 -266.88343811 276.47631836 C-266.88967697 275.5766333 -266.89591583 274.67694824 -266.90234375 273.75 C-266.9057225 272.81486572 -266.90910126 271.87973145 -266.9125824 270.91625977 C-266.97644687 259.66297695 -267.30785264 248.41569629 -267.64819336 237.16796875 C-267.73001084 234.4245932 -267.80490302 231.68109585 -267.87890625 228.9375 C-267.90594131 228.11048584 -267.93297638 227.28347168 -267.96083069 226.43139648 C-268.06509315 222.42245134 -267.87538596 218.93123397 -267 215 C-266.88874701 212.88326555 -266.82268646 210.76392064 -266.7890625 208.64453125 C-266.76295898 207.39567139 -266.73685547 206.14681152 -266.70996094 204.86010742 C-266.69670776 204.20078217 -266.68345459 203.54145691 -266.6697998 202.8621521 C-265.15329225 133.47986541 -244.74323884 62.46604759 -194 13 C-190.47397668 9.77875263 -186.84321388 6.83271368 -183 4 C-182.0203125 3.26652344 -181.040625 2.53304687 -180.03125 1.77734375 C-130.99564355 -33.60354556 -47.95636441 -41.59851307 0 0 Z M-71.3046875 42.91015625 C-75.07675362 47.56005342 -76.71542342 52.6827336 -77.4375 58.5625 C-76.44535656 66.35791277 -74.11517979 72.81217714 -68 78 C-61.29124507 82.58092761 -53.90890798 83.01728703 -46 82 C-41.89992361 80.63117575 -38.58886801 78.39257867 -35 76 C-35 75.34 -35 74.68 -35 74 C-34.34 74 -33.68 74 -33 74 C-32.3490741 72.75264433 -31.70448331 71.50198168 -31.0625 70.25 C-30.70285156 69.55390625 -30.34320312 68.8578125 -29.97265625 68.140625 C-27.21158148 62.06404278 -27.33458771 56.27683387 -29.5 50 C-31.85723196 44.60382789 -34.93397506 41.0244925 -40 38 C-51.3561581 33.60204112 -62.23255705 34.22368317 -71.3046875 42.91015625 Z " fill="#0052D5" transform="translate(580,245)"/>
<path d="M0 0 C15.43505813 13.38592111 15.43505813 13.38592111 19.265625 17.96484375 C19.265625 18.62484375 19.265625 19.28484375 19.265625 19.96484375 C20.255625 20.29484375 21.245625 20.62484375 22.265625 20.96484375 C23.59667969 22.37255859 23.59667969 22.37255859 24.9375 24.17578125 C25.6814502 25.16868164 25.6814502 25.16868164 26.44042969 26.18164062 C26.96024414 26.89384766 27.48005859 27.60605469 28.015625 28.33984375 C28.55348633 29.07009766 29.09134766 29.80035156 29.64550781 30.55273438 C49.86328299 58.21659794 61.71923018 88.95376572 61.515625 123.46484375 C61.52335938 124.77582031 61.53109375 126.08679688 61.5390625 127.4375 C61.49668016 148.77700917 61.49668016 148.77700917 57.234375 154.8671875 C56.2546875 155.55941406 55.275 156.25164062 54.265625 156.96484375 C53.59402344 157.45355957 52.92242187 157.94227539 52.23046875 158.44580078 C49.77698152 160.19717967 47.28247195 161.86836597 44.765625 163.52734375 C43.3739209 164.44652588 43.3739209 164.44652588 41.95410156 165.38427734 C-6.11156793 196.78685676 -63.57769937 219.16274794 -121.63671875 218.984375 C-122.95246887 218.98226013 -122.95246887 218.98226013 -124.2947998 218.98010254 C-126.44132779 218.97644825 -128.5878523 218.97084447 -130.734375 218.96484375 C-130.75717302 187.16738787 -130.77487714 155.36993431 -130.78544033 123.57247217 C-130.78669108 119.82101984 -130.7879854 116.06956753 -130.78930664 112.31811523 C-130.78970011 111.19781509 -130.78970011 111.19781509 -130.79010152 110.05488262 C-130.79445635 97.95156928 -130.80234287 85.84826067 -130.8115278 73.74495014 C-130.82086953 61.33174973 -130.82643172 48.91855181 -130.82846349 36.50534803 C-130.82983764 28.84180383 -130.83418239 21.17827301 -130.84229147 13.51473293 C-130.84818752 7.64466322 -130.84883264 1.77460043 -130.84748268 -4.09547234 C-130.84775881 -6.50821134 -130.84976127 -8.92095083 -130.85358047 -11.33368683 C-130.85852468 -14.61695217 -130.85737054 -17.90015933 -130.85462952 -21.1834259 C-130.85754236 -22.14742445 -130.8604552 -23.111423 -130.86345631 -24.10463363 C-130.86146526 -24.98145567 -130.85947421 -25.85827771 -130.85742283 -26.76167011 C-130.85780255 -27.51997161 -130.85818227 -28.27827311 -130.8585735 -29.05955344 C-130.734375 -31.03515625 -130.734375 -31.03515625 -129.734375 -34.03515625 C-84.95682199 -43.30518571 -34.83916514 -28.97338733 0 0 Z " fill="#F02342" transform="translate(443.734375,581.03515625)"/>
<path d="M0 0 C0.8727356 0.00498505 1.74547119 0.00997009 2.64465332 0.0151062 C34.1908773 0.22551507 64.28166977 5.85266738 93.375 18.375 C94.12281738 18.69581543 94.87063477 19.01663086 95.64111328 19.34716797 C121.61524403 30.66450885 143.82227387 47.03806894 164.375 66.375 C165.08398438 67.02984375 165.79296875 67.6846875 166.5234375 68.359375 C198.62619822 99.02078727 218.26828402 145.3496524 225.375 188.375 C225.73271484 190.25445313 225.73271484 190.25445313 226.09765625 192.171875 C227.17074143 202.08866221 221.042826 208.84700305 215.15429688 216.17675781 C214.56712891 216.90217773 213.97996094 217.62759766 213.375 218.375 C212.2341848 219.82016237 211.09355854 221.26547392 209.953125 222.7109375 C196.70214824 239.2930077 182.26515335 254.18826381 165.6875 267.46484375 C163.79493826 269.02812532 162.10368656 270.64138841 160.375 272.375 C157.13623144 274.64902899 153.92958163 276.64761152 150.375 278.375 C150.51574951 277.54129883 150.65649902 276.70759766 150.80151367 275.84863281 C152.21218835 266.88348128 152.72662853 258.20792287 152.6875 249.125 C152.68567719 248.44968231 152.68385437 247.77436462 152.68197632 247.07858276 C152.52761835 212.989605 140.43995795 181.09444572 119.375 154.375 C117.86170185 152.31952246 116.35735247 150.25806036 114.859375 148.19140625 C112.86109739 145.7461455 110.62236261 143.59226401 108.375 141.375 C107.61703125 140.570625 106.8590625 139.76625 106.078125 138.9375 C83.4226415 115.2718994 54.21984816 100.28062793 22.375 93.375 C21.63523926 93.21128906 20.89547852 93.04757812 20.13330078 92.87890625 C1.32333676 88.87977487 -18.56803675 89.40237534 -37.625 91.375 C-37.68558594 90.818125 -37.74617188 90.26125 -37.80859375 89.6875 C-37.89238281 88.924375 -37.97617187 88.16125 -38.0625 87.375 C-38.19591797 86.15103516 -38.19591797 86.15103516 -38.33203125 84.90234375 C-38.60191726 82.57412714 -38.92213776 80.2580834 -39.25 77.9375 C-39.625 74.375 -39.625 74.375 -38.625 72.375 C-38.53366366 71.03824913 -38.50305956 69.69704335 -38.50537109 68.35717773 C-38.50534088 67.52920181 -38.50531067 66.70122589 -38.50527954 65.84815979 C-38.51127167 64.948228 -38.51726379 64.0482962 -38.5234375 63.12109375 C-38.5266098 62.18575302 -38.5297821 61.25041229 -38.53305054 60.28672791 C-38.57110025 53.63741888 -38.71464455 46.99390363 -38.9140625 40.34765625 C-38.94087097 39.44743744 -38.96767944 38.54721863 -38.99530029 37.61972046 C-39.10667953 33.95237236 -39.22034086 30.28520821 -39.34863281 26.6184082 C-39.4427031 23.88253062 -39.52320447 21.14652281 -39.6015625 18.41015625 C-39.63375885 17.58830338 -39.6659552 16.7664505 -39.6991272 15.91969299 C-39.81977942 11.2983757 -39.41569068 7.72949525 -37.625 3.375 C-24.98717605 0.87251704 -12.87213002 -0.12456004 0 0 Z " fill="#00A56A" transform="translate(351.625,455.625)"/>
<path d="M0 0 C0.33 0 0.66 0 1 0 C1 1.65 1 3.3 1 5 C1.85827393 4.9685791 1.85827393 4.9685791 2.73388672 4.93652344 C33.72684795 3.95890557 59.45755689 12.96004996 82.91796875 33.5625 C94.03704753 44.10131656 101.81380556 56.59210357 107 71 C107.4125 72.05316406 107.825 73.10632813 108.25 74.19140625 C116.0271767 97.49593227 111.50652323 123.61697466 100.9453125 145.16650391 C98.64230064 149.63334768 96.15194802 154.07461883 93 158 C92.34 158 91.68 158 91 158 C91 158.66 91 159.32 91 160 C70.6688446 166.08352471 50.21988098 171.17314697 29.0625 173.3125 C28.32032227 173.38895752 27.57814453 173.46541504 26.81347656 173.54418945 C17.85932471 174.30700029 9.03915138 174 0 174 C0 116.58 0 59.16 0 0 Z " fill="#FED62A" transform="translate(313,626)"/>
<path d="M0 0 C3.31996141 3.07738039 4.99682601 6.69215567 6.875 10.75 C7.22723633 11.50788818 7.57947266 12.26577637 7.94238281 13.04663086 C18.13464413 35.43270436 22.44130847 58.97107662 22.375 83.4375 C22.37478851 84.16856964 22.37457703 84.89963928 22.37435913 85.65286255 C22.33510697 99.37865433 20.95282768 112.57258212 18 126 C17.81276367 126.85577637 17.62552734 127.71155273 17.43261719 128.59326172 C12.08910383 152.18685738 2.18847113 173.25366616 -10 194 C-10.33 194 -10.66 194 -11 194 C-11.25 191.75 -11.25 191.75 -11 189 C-9.68870078 187.64499081 -8.35308313 186.31328657 -7 185 C-5.73215876 181.86649283 -5.73215876 181.86649283 -5 179 C-4.34 179 -3.68 179 -3 179 C-3 178.01 -3 177.02 -3 176 C-2.34 176 -1.68 176 -1 176 C-0.62875 174.80375 -0.2575 173.6075 0.125 172.375 C1.46012779 168.3382756 3.07723526 164.50543453 4.8125 160.625 C14.172846 138.93129489 19.17622555 115.65828052 19 92 C19.66 92 20.32 92 21 92 C20.38785473 82.66232417 19.71411647 73.33040732 19 64 C18.94118652 63.17177734 18.88237305 62.34355469 18.82177734 61.49023438 C17.34985958 41.69644499 10.33642267 22.23535225 1.296875 4.6953125 C0 2 0 2 0 0 Z " fill="#0547BB" transform="translate(588,461)"/>
<path d="M0 0 C2.44951924 3.75926513 2.28252824 7.51274196 2.25878906 11.84204102 C2.26404602 13.02074768 2.26404602 13.02074768 2.26940918 14.2232666 C2.27820133 16.81690339 2.27238683 19.41026676 2.265625 22.00390625 C2.26697224 23.80704297 2.26891326 25.61017934 2.27142334 27.41331482 C2.27437108 31.19021059 2.2700877 34.96701172 2.26074219 38.74389648 C2.24933968 43.5885371 2.25591438 48.43295632 2.26788712 53.27758884 C2.27510819 56.99986952 2.27281679 60.72209756 2.26763153 64.44437981 C2.26629614 66.23098718 2.26793888 68.01759931 2.27259064 69.80420113 C2.27766082 72.29871445 2.26993918 74.79286711 2.25878906 77.28735352 C2.26283752 78.02769333 2.26688599 78.76803314 2.27105713 79.5308075 C2.24028386 83.24068995 2.1142564 84.82861541 0 88 C-0.06058594 87.443125 -0.12117188 86.88625 -0.18359375 86.3125 C-0.26738281 85.549375 -0.35117187 84.78625 -0.4375 84 C-0.57091797 82.77603516 -0.57091797 82.77603516 -0.70703125 81.52734375 C-0.97691726 79.19912714 -1.29713776 76.8830834 -1.625 74.5625 C-2 71 -2 71 -1 69 C-0.90866366 67.66324913 -0.87805956 66.32204335 -0.88037109 64.98217773 C-0.88034088 64.15420181 -0.88031067 63.32622589 -0.88027954 62.47315979 C-0.88627167 61.573228 -0.89226379 60.6732962 -0.8984375 59.74609375 C-0.9016098 58.81075302 -0.9047821 57.87541229 -0.90805054 56.91172791 C-0.94610025 50.26241888 -1.08964455 43.61890363 -1.2890625 36.97265625 C-1.31587097 36.07243744 -1.34267944 35.17221863 -1.37030029 34.24472046 C-1.48167953 30.57737236 -1.59534086 26.91020821 -1.72363281 23.2434082 C-1.8177031 20.50753062 -1.89820447 17.77152281 -1.9765625 15.03515625 C-2.00875885 14.21330338 -2.0409552 13.3914505 -2.0741272 12.54469299 C-2.19477942 7.9233757 -1.79069068 4.35449525 0 0 Z " fill="#089B6A" transform="translate(314,459)"/>
<path d="M0 0 C0.66 0 1.32 0 2 0 C0.37862623 9.63689759 -8.94881275 18.66452636 -15 26 C-15.66386719 26.83789062 -16.32773437 27.67578125 -17.01171875 28.5390625 C-29.07545661 43.65775801 -42.59442459 57.00222086 -57.6875 69.08984375 C-59.95794704 70.89706601 -59.95794704 70.89706601 -61.67578125 72.7109375 C-63.33864682 74.3296562 -64.74565106 74.61131915 -67 75 C-67.33 74.34 -67.66 73.68 -68 73 C-65.03 72.01 -65.03 72.01 -62 71 C-62 70.01 -62 69.02 -62 68 C-61.34 68 -60.68 68 -60 68 C-60 67.34 -60 66.68 -60 66 C-58.02 65.505 -58.02 65.505 -56 65 C-56 64.34 -56 63.68 -56 63 C-54.62637755 62.07280485 -53.24759628 61.15258464 -51.84765625 60.265625 C-37.76750515 50.62087033 -25.07789356 35.64861575 -15 22 C-13.7388092 20.40195697 -12.47757635 18.80394691 -11.21557617 17.20654297 C-6.92447523 11.74400508 -3.07066016 6.25444991 0 0 Z " fill="#0D925C" transform="translate(575,654)"/>
<path d="M0 0 C0.33 0 0.66 0 1 0 C1.31168471 4.32276551 1.61455525 8.64603322 1.90942383 12.9699707 C2.01086822 14.43953916 2.11468083 15.90894619 2.22094727 17.37817383 C2.37364994 19.49522077 2.5177071 21.61271015 2.66015625 23.73046875 C2.74918213 25.00301514 2.83820801 26.27556152 2.92993164 27.58666992 C2.99207834 30.61410195 2.74387389 33.08059985 2 36 C1.34 35.67 0.68 35.34 0 35 C0 23.45 0 11.9 0 0 Z " fill="#E33847" transform="translate(313,590)"/>
<path d="M0 0 C3.63915794 3.44227505 6.46601205 6.92432808 9.1875 11.125 C9.86167969 12.15882813 10.53585937 13.19265625 11.23046875 14.2578125 C11.81441406 15.16273438 12.39835938 16.06765625 13 17 C13.66 17.99 14.32 18.98 15 20 C14.67 20.99 14.34 21.98 14 23 C12.03399015 20.10931048 10.07859126 17.21159367 8.125 14.3125 C7.56941406 13.49587891 7.01382813 12.67925781 6.44140625 11.83789062 C5.90644531 11.04189453 5.37148438 10.24589844 4.8203125 9.42578125 C4.32805176 8.69786377 3.83579102 7.96994629 3.32861328 7.2199707 C1.93073056 4.88425817 0.94436714 2.54900757 0 0 Z " fill="#0033DB" transform="translate(534,542)"/>
<path d="M0 0 C0.66 0.33 1.32 0.66 2 1 C3.14294461 5.68607291 3.23558017 10.20986994 3 15 C2.01 16.485 2.01 16.485 1 18 C0.93941406 17.443125 0.87882812 16.88625 0.81640625 16.3125 C0.73261719 15.549375 0.64882813 14.78625 0.5625 14 C0.47355469 13.1853125 0.38460938 12.370625 0.29296875 11.53125 C0.02100536 9.18148627 -0.298221 6.8426235 -0.625 4.5 C-0.74875 3.345 -0.8725 2.19 -1 1 C-0.67 0.67 -0.34 0.34 0 0 Z " fill="#219863" transform="translate(313,529)"/>
<path d="M0 0 C0.103125 0.61875 0.20625 1.2375 0.3125 1.875 C0.87525373 4.36526484 0.87525373 4.36526484 4 6 C-1.27749285 5.46148032 -5.25645564 4.22656164 -10 2 C-6.5980513 -0.09350689 -3.94727588 -0.17942163 0 0 Z " fill="#003AE1" transform="translate(432,464)"/>
<path d="M0 0 C2.31 0 4.62 0 7 0 C4.51737568 2.48262432 2.38224713 3.07286975 -0.9375 4.1875 C-1.99839844 4.55230469 -3.05929687 4.91710937 -4.15234375 5.29296875 C-7 6 -7 6 -10 5 C-7.93243723 2.2027092 -6.85559629 1.97307727 -3.3125 1.3125 C-2.219375 1.209375 -1.12625 1.10625 0 1 C0 0.67 0 0.34 0 0 Z " fill="#F0373E" transform="translate(414,779)"/>
<path d="M0 0 C0.33 0 0.66 0 1 0 C1 2.64 1 5.28 1 8 C5.95 8 10.9 8 16 8 C16 8.33 16 8.66 16 9 C7.585 9.495 7.585 9.495 -1 10 C-0.67 6.7 -0.34 3.4 0 0 Z " fill="#F00944" transform="translate(315,621)"/>
<path d="M0 0 C4.29 0 8.58 0 13 0 C13 0.66 13 1.32 13 2 C6.565 2.495 6.565 2.495 0 3 C0 2.01 0 1.02 0 0 Z " fill="#12A561" transform="translate(315,544)"/>
<path d="M0 0 C3.17218843 3.62535821 4.42902597 7.51150278 6 12 C5.01 12 4.02 12 3 12 C3 11.01 3 10.02 3 9 C2.01 8.67 1.02 8.34 0 8 C0 5.36 0 2.72 0 0 Z " fill="#E52649" transform="translate(488,636)"/>
<path d="M0 0 C0.33 0 0.66 0 1 0 C1.1953125 2.01822917 1.390625 4.03645833 1.5859375 6.0546875 C1.86374749 8.22668245 1.86374749 8.22668245 4 10 C2.68 11.32 1.36 12.64 0 14 C-0.66 13.67 -1.32 13.34 -2 13 C-1.34 8.71 -0.68 4.42 0 0 Z " fill="#428955" transform="translate(504,720)"/>
<path d="M0 0 C0 0.33 0 0.66 0 1 C-1.65 1 -3.3 1 -5 1 C-5 1.66 -5 2.32 -5 3 C-7.31 3 -9.62 3 -12 3 C-12 2.34 -12 1.68 -12 1 C-8.0186217 -0.3271261 -4.14954773 -0.06915913 0 0 Z " fill="#01C356" transform="translate(327,458)"/>
<path d="M0 0 C7.75 0.75 7.75 0.75 10 3 C9.34 3 8.68 3 8 3 C8 3.66 8 4.32 8 5 C7.34 5 6.68 5 6 5 C6 4.01 6 3.02 6 2 C3.03 1.505 3.03 1.505 0 1 C0 0.67 0 0.34 0 0 Z " fill="#00C05C" transform="translate(412,464)"/>
<path d="M0 0 C0.99 0.495 0.99 0.495 2 1 C1.01 1.495 1.01 1.495 0 2 C0 1.34 0 0.68 0 0 Z " fill="#E96742" transform="translate(417,782)"/>
<path d="M0 0 C3 1 3 1 3 1 Z " fill="#075AD0" transform="translate(441,224)"/>
<path d="M0 0 C2 1 2 1 2 1 Z " fill="#F4C530" transform="translate(348,799)"/>
<path d="" fill="#3F3317" transform="translate(0,0)"/>
<path d="" fill="#F5BE30" transform="translate(0,0)"/>
<path d="" fill="#ED7441" transform="translate(0,0)"/>
<path d="" fill="#D74742" transform="translate(0,0)"/>
<path d="" fill="#D14341" transform="translate(0,0)"/>
<path d="" fill="#CD4945" transform="translate(0,0)"/>
<path d="" fill="#BC4E41" transform="translate(0,0)"/>
<path d="" fill="#816D4D" transform="translate(0,0)"/>
<path d="" fill="#667D4E" transform="translate(0,0)"/>
<path d="" fill="#176B94" transform="translate(0,0)"/>
<path d="" fill="#0850BD" transform="translate(0,0)"/>
<path d="" fill="#0D5CB9" transform="translate(0,0)"/>
<path d="" fill="#0B50B3" transform="translate(0,0)"/>
<path d="" fill="#085BD1" transform="translate(0,0)"/>
<path d="" fill="#0858D0" transform="translate(0,0)"/>
</svg>
